<svg width="118" height="88" viewBox="0 0 118 88" fill="none" xmlns="http://www.w3.org/2000/svg">
<path d="M51.4454 40.0444V42.6985C52.3872 42.9839 53.1292 43.5404 53.6715 44.3681C54.228 45.1957 54.5062 46.2302 54.5062 47.4717C54.5062 48.4991 54.3064 49.4123 53.9069 50.2114C53.5074 51.0105 52.9152 51.6384 52.1303 52.095C51.3455 52.5516 50.3966 52.78 49.2836 52.78C49.1694 52.78 48.9268 52.7657 48.5558 52.7371V50.7679L49.1551 50.8108C50.1255 50.8108 50.8818 50.5111 51.424 49.9118C51.9662 49.3125 52.2374 48.5134 52.2374 47.5145C52.2374 46.6155 52.0162 45.8878 51.5738 45.3312C51.1315 44.7605 50.5107 44.4751 49.7117 44.4751C48.8555 44.4751 48.2062 44.7961 47.7639 45.4383C47.3358 46.0661 47.1217 46.9152 47.1217 47.9854V48.3707H45.2381V47.9854C45.2381 46.9294 45.0312 46.0804 44.6174 45.4383C44.2036 44.7961 43.5829 44.4751 42.7552 44.4751C41.9276 44.4751 41.2855 44.7533 40.8289 45.3098C40.3722 45.8664 40.1439 46.6012 40.1439 47.5145C40.1439 48.5134 40.415 49.3125 40.9573 49.9118C41.4995 50.5111 42.2558 50.8108 43.2261 50.8108L43.8255 50.7679V52.7371C43.4545 52.7657 43.2119 52.78 43.0977 52.78C41.9847 52.78 41.0358 52.5516 40.2509 52.095C39.4661 51.6384 38.8739 51.0105 38.4744 50.2114C38.0748 49.4123 37.8751 48.4991 37.8751 47.4717C37.8751 46.43 38.0677 45.5382 38.453 44.7961C38.8525 44.0541 39.3948 43.4905 40.0797 43.1052C40.7789 42.7057 41.5709 42.5059 42.4556 42.5059C43.4687 42.5059 44.275 42.7841 44.8743 43.3406C45.4879 43.8829 45.916 44.5678 46.1585 45.3955H46.2227C46.4368 44.682 46.7864 44.0684 47.2716 43.5547C47.771 43.041 48.4274 42.7128 49.2408 42.5701V40.0444H35.9701V38.1608H56.3898V40.0444H51.4454ZM62.8588 38.1608V40.0444H60.2474V54H58V40.0444H55.3886V38.1608H58.0642C57.3793 37.0906 56.8156 36.32 56.3732 35.8491C55.9452 35.3782 55.5242 35.0714 55.1104 34.9287C54.6823 34.786 54.1044 34.7147 53.3766 34.7147H52.4134V32.8739H53.3338C54.4183 32.8882 55.2745 33.0024 55.9024 33.2164C56.5445 33.4304 57.1866 33.9085 57.8287 34.6505C58.4851 35.3782 59.2771 36.5483 60.2046 38.1608H62.8588ZM74.1337 40.0444V44.2182C74.4476 43.6046 74.8971 43.1195 75.4821 42.7627C76.0814 42.3917 76.8021 42.2062 77.644 42.2062C78.5144 42.2062 79.285 42.4203 79.9556 42.8483C80.6263 43.2622 81.1471 43.8401 81.5181 44.5821C81.8892 45.3098 82.0747 46.1446 82.0747 47.0864C82.0747 48.0995 81.882 48.9771 81.4967 49.7191C81.1115 50.4469 80.5835 51.0105 79.9128 51.4101C79.2422 51.7954 78.4787 51.988 77.6226 51.988C77.1089 51.988 76.6522 51.938 76.2527 51.8382V50.0616C76.4667 50.1187 76.7307 50.1472 77.0446 50.1472C77.8437 50.1472 78.5001 49.8832 79.0138 49.3553C79.5418 48.813 79.8058 48.071 79.8058 47.1292C79.8058 46.2445 79.5347 45.5239 78.9924 44.9674C78.4645 44.4109 77.7938 44.1326 76.9804 44.1326C76.0386 44.1326 75.3252 44.4465 74.84 45.0744C74.3691 45.7023 74.1337 46.4514 74.1337 47.3219V54H71.9718V50.083C71.6436 50.6966 71.1656 51.1889 70.5377 51.5599C69.9099 51.9309 69.1536 52.1164 68.2689 52.1164C67.3842 52.1164 66.5993 51.9095 65.9144 51.4957C65.2295 51.0819 64.6943 50.504 64.3091 49.7619C63.9381 49.0057 63.7526 48.1281 63.7526 47.1292C63.7526 46.1446 63.9452 45.2813 64.3305 44.5393C64.7158 43.7973 65.258 43.2265 65.9572 42.8269C66.6564 42.4131 67.4555 42.2062 68.3545 42.2062C69.2107 42.2062 69.9455 42.3846 70.5591 42.7413C71.1727 43.0981 71.6436 43.5761 71.9718 44.1754V40.0444H61.8476V38.1608H83.9582V40.0444H74.1337ZM68.9966 50.2328C69.6387 50.2328 70.181 50.083 70.6233 49.7833C71.08 49.4837 71.4153 49.0984 71.6293 48.6275C71.8577 48.1566 71.9718 47.6715 71.9718 47.172C71.9718 46.3587 71.715 45.6523 71.2013 45.053C70.6876 44.4394 69.9527 44.1326 68.9966 44.1326C68.1547 44.1326 67.4484 44.4109 66.8776 44.9674C66.3068 45.5096 66.0214 46.2374 66.0214 47.1506C66.0214 48.0924 66.2997 48.8416 66.8562 49.3981C67.4127 49.9546 68.1262 50.2328 68.9966 50.2328Z" fill="url(#paint0_linear)"/>
<path fill-rule="evenodd" clip-rule="evenodd" d="M0 39.9055V38.4589C0.225904 36.7183 1.26844 35.0765 3.08981 34.2097L31.7211 20.584C37.5835 17.7941 42.5921 25.684 37.5728 29.802L26.0787 39.232C23.5781 41.2835 23.3793 45.0395 25.6492 47.3436L65 87.287V87.4075L46.1692 72.9591L25.6066 58.1697L2.55105 43.8474C1.04159 42.9097 0.199856 41.4416 0 39.9055Z" fill="url(#paint1_linear)"/>
<path fill-rule="evenodd" clip-rule="evenodd" d="M84.533 68.7579C84.7119 68.7014 84.8924 68.6356 85.0741 68.56L114.352 56.3847C118.368 54.7144 118.947 49.2633 115.372 46.786L93.0623 31.3275L73.2658 15.5274L55 0V0.0776231L92.4779 42.138C94.6296 44.5528 94.243 48.2941 91.6429 50.2179L79.6912 59.0608C75.6911 62.0204 77.4632 67.4876 81.208 68.7579H84.533Z" fill="url(#paint2_linear)"/>
<defs>
<linearGradient id="paint0_linear" x1="27.2128" y1="46.6858" x2="98.2908" y2="33.7138" gradientUnits="userSpaceOnUse">
<stop offset="0.0597401" stop-color="#090B35"/>
<stop offset="0.508333" stop-color="#EB5757"/>
<stop offset="0.785867" stop-color="#090B35" stop-opacity="0.99"/>
</linearGradient>
<linearGradient id="paint1_linear" x1="22.3905" y1="2.68316" x2="13.472" y2="70.3894" gradientUnits="userSpaceOnUse">
<stop stop-color="#EB5757"/>
<stop offset="1" stop-color="#090B35" stop-opacity="0.99"/>
</linearGradient>
<linearGradient id="paint2_linear" x1="63.0311" y1="71.4025" x2="90.9757" y2="-23.6535" gradientUnits="userSpaceOnUse">
<stop stop-color="#090B35" stop-opacity="0.9"/>
<stop offset="1" stop-color="#EB5757"/>
</linearGradient>
</defs>
</svg>
