<svg width="131" height="137" viewBox="0 0 131 137" fill="none" xmlns="http://www.w3.org/2000/svg">
<path d="M56.4972 62.1093V64.7635C57.439 65.0488 58.181 65.6054 58.7232 66.433C59.2797 67.2606 59.558 68.2952 59.558 69.5366C59.558 70.564 59.3582 71.4773 58.9587 72.2764C58.5591 73.0755 57.9669 73.7033 57.1821 74.16C56.3973 74.6166 55.4484 74.8449 54.3353 74.8449C54.2212 74.8449 53.9786 74.8306 53.6076 74.8021V72.8329L54.2069 72.8757C55.1772 72.8757 55.9335 72.576 56.4758 71.9767C57.018 71.3774 57.2891 70.5783 57.2891 69.5794C57.2891 68.6804 57.0679 67.9527 56.6256 67.3962C56.1832 66.8254 55.5625 66.54 54.7634 66.54C53.9072 66.54 53.258 66.8611 52.8156 67.5032C52.3875 68.1311 52.1735 68.9801 52.1735 70.0503V70.4356H50.2899V70.0503C50.2899 68.9944 50.083 68.1453 49.6692 67.5032C49.2554 66.8611 48.6346 66.54 47.807 66.54C46.9794 66.54 46.3372 66.8183 45.8806 67.3748C45.424 67.9313 45.1957 68.6662 45.1957 69.5794C45.1957 70.5783 45.4668 71.3774 46.009 71.9767C46.5513 72.576 47.3076 72.8757 48.2779 72.8757L48.8772 72.8329V74.8021C48.5062 74.8306 48.2636 74.8449 48.1495 74.8449C47.0364 74.8449 46.0875 74.6166 45.3027 74.16C44.5179 73.7033 43.9257 73.0755 43.5261 72.2764C43.1266 71.4773 42.9268 70.564 42.9268 69.5366C42.9268 68.4949 43.1195 67.6031 43.5047 66.8611C43.9043 66.1191 44.4465 65.5554 45.1315 65.1701C45.8307 64.7706 46.6226 64.5708 47.5073 64.5708C48.5205 64.5708 49.3267 64.8491 49.926 65.4056C50.5396 65.9478 50.9677 66.6328 51.2103 67.4604H51.2745C51.4885 66.7469 51.8382 66.1333 52.3233 65.6196C52.8228 65.1059 53.4792 64.7777 54.2925 64.635V62.1093H41.0218V60.2257H61.4416V62.1093H56.4972ZM67.9105 60.2257V62.1093H65.2992V76.0649H63.0517V62.1093H60.4404V60.2257H63.1159C62.431 59.1555 61.8674 58.385 61.425 57.9141C60.9969 57.4432 60.576 57.1364 60.1622 56.9937C59.7341 56.851 59.1561 56.7796 58.4284 56.7796H57.4652V54.9389H58.3856C59.4701 54.9531 60.3263 55.0673 60.9541 55.2813C61.5962 55.4954 62.2384 55.9734 62.8805 56.7154C63.5369 57.4432 64.3289 58.6133 65.2564 60.2257H67.9105ZM79.1854 62.1093V66.2832C79.4993 65.6696 79.9488 65.1844 80.5339 64.8277C81.1332 64.4567 81.8538 64.2712 82.6957 64.2712C83.5662 64.2712 84.3367 64.4852 85.0074 64.9133C85.6781 65.3271 86.1989 65.905 86.5699 66.647C86.9409 67.3748 87.1264 68.2096 87.1264 69.1513C87.1264 70.1645 86.9338 71.0421 86.5485 71.7841C86.1632 72.5118 85.6352 73.0755 84.9646 73.475C84.2939 73.8603 83.5305 74.0529 82.6743 74.0529C82.1606 74.0529 81.704 74.003 81.3044 73.9031V72.1265C81.5185 72.1836 81.7825 72.2122 82.0964 72.2122C82.8955 72.2122 83.5519 71.9482 84.0656 71.4202C84.5936 70.878 84.8576 70.1359 84.8576 69.1942C84.8576 68.3094 84.5864 67.5888 84.0442 67.0323C83.5162 66.4758 82.8456 66.1975 82.0322 66.1975C81.0904 66.1975 80.3769 66.5115 79.8918 67.1393C79.4209 67.7672 79.1854 68.5163 79.1854 69.3868V76.0649H77.0236V72.1479C76.6954 72.7615 76.2173 73.2538 75.5895 73.6248C74.9616 73.9959 74.2053 74.1814 73.3206 74.1814C72.4359 74.1814 71.6511 73.9745 70.9662 73.5606C70.2812 73.1468 69.7461 72.5689 69.3608 71.8269C68.9898 71.0706 68.8043 70.193 68.8043 69.1942C68.8043 68.2096 68.997 67.3462 69.3822 66.6042C69.7675 65.8622 70.3098 65.2914 71.009 64.8919C71.7082 64.4781 72.5073 64.2712 73.4062 64.2712C74.2624 64.2712 74.9973 64.4495 75.6109 64.8063C76.2245 65.163 76.6954 65.641 77.0236 66.2404V62.1093H66.8993V60.2257H89.01V62.1093H79.1854ZM74.0484 72.2978C74.6905 72.2978 75.2327 72.1479 75.6751 71.8483C76.1317 71.5486 76.4671 71.1634 76.6811 70.6925C76.9094 70.2216 77.0236 69.7364 77.0236 69.237C77.0236 68.4236 76.7667 67.7173 76.253 67.1179C75.7393 66.5043 75.0044 66.1975 74.0484 66.1975C73.2065 66.1975 72.5001 66.4758 71.9293 67.0323C71.3586 67.5746 71.0732 68.3023 71.0732 69.2156C71.0732 70.1573 71.3514 70.9065 71.9079 71.463C72.4645 72.0195 73.1779 72.2978 74.0484 72.2978Z" fill="url(#paint0_linear)"/>
<path d="M37.7211 43.987C43.5835 41.197 48.5921 49.0869 43.5728 53.2049L32.0787 62.6349C29.5781 64.6864 29.3793 68.4424 31.6492 70.7465L71.4863 111.184L52.1692 96.362L31.6066 81.5727L8.55105 67.2503C4.85621 64.955 5.16218 59.4817 9.08981 57.6126L37.7211 43.987Z" fill="url(#paint1_linear)"/>
<path d="M92.2758 92.5853C86.2811 95.0783 81.6737 86.9477 86.8928 83.0861L98.8445 74.2432C101.445 72.3194 101.831 68.5781 99.6795 66.1633L61.9165 23.7829L80.4675 39.5527L100.264 55.3528L122.574 70.8113C126.149 73.2886 125.569 78.7397 121.553 80.41L92.2758 92.5853Z" fill="url(#paint2_linear)"/>
<defs>
<linearGradient id="paint0_linear" x1="32.2646" y1="68.7507" x2="103.343" y2="55.7788" gradientUnits="userSpaceOnUse">
<stop offset="0.0597401" stop-color="#090B35"/>
<stop offset="0.508333" stop-color="#EB5757"/>
<stop offset="0.785867" stop-color="#090B35" stop-opacity="0.99"/>
</linearGradient>
<linearGradient id="paint1_linear" x1="28.3905" y1="26.0865" x2="19.4721" y2="93.7926" gradientUnits="userSpaceOnUse">
<stop stop-color="#EB5757"/>
<stop offset="1" stop-color="#090B35" stop-opacity="0.99"/>
</linearGradient>
<linearGradient id="paint2_linear" x1="70.2328" y1="95.4279" x2="98.1773" y2="0.371888" gradientUnits="userSpaceOnUse">
<stop stop-color="#090B35" stop-opacity="0.9"/>
<stop offset="1" stop-color="#EB5757"/>
</linearGradient>
</defs>
</svg>
