<svg width="32" height="32" viewBox="0 0 32 32" fill="none" xmlns="http://www.w3.org/2000/svg">
<rect width="32" height="32" fill="white"/>
<path d="M13.8443 15.1746V15.7348C14.0431 15.795 14.1997 15.9125 14.3142 16.0872C14.4316 16.2619 14.4903 16.4802 14.4903 16.7422C14.4903 16.9591 14.4482 17.1518 14.3638 17.3205C14.2795 17.4892 14.1545 17.6217 13.9889 17.718C13.8232 17.8144 13.6229 17.8626 13.388 17.8626C13.3639 17.8626 13.3127 17.8596 13.2344 17.8536V17.438L13.3609 17.447C13.5657 17.447 13.7253 17.3837 13.8398 17.2572C13.9542 17.1307 14.0115 16.9621 14.0115 16.7513C14.0115 16.5615 13.9648 16.4079 13.8714 16.2905C13.7781 16.17 13.647 16.1098 13.4784 16.1098C13.2977 16.1098 13.1606 16.1775 13.0673 16.3131C12.9769 16.4456 12.9317 16.6248 12.9317 16.8507V16.932H12.5342V16.8507C12.5342 16.6278 12.4905 16.4486 12.4032 16.3131C12.3158 16.1775 12.1848 16.1098 12.0101 16.1098C11.8355 16.1098 11.6999 16.1685 11.6036 16.2859C11.5072 16.4034 11.459 16.5585 11.459 16.7513C11.459 16.9621 11.5162 17.1307 11.6307 17.2572C11.7451 17.3837 11.9047 17.447 12.1095 17.447L12.236 17.438V17.8536C12.1577 17.8596 12.1065 17.8626 12.0824 17.8626C11.8475 17.8626 11.6472 17.8144 11.4816 17.718C11.3159 17.6217 11.1909 17.4892 11.1066 17.3205C11.0223 17.1518 10.9801 16.9591 10.9801 16.7422C10.9801 16.5224 11.0208 16.3341 11.1021 16.1775C11.1864 16.0209 11.3009 15.9019 11.4454 15.8206C11.593 15.7363 11.7602 15.6941 11.9469 15.6941C12.1607 15.6941 12.3309 15.7529 12.4574 15.8703C12.5869 15.9848 12.6773 16.1293 12.7285 16.304H12.742C12.7872 16.1534 12.861 16.0239 12.9634 15.9155C13.0688 15.8071 13.2073 15.7378 13.379 15.7077V15.1746H10.578V14.777H14.8879V15.1746H13.8443ZM16.2533 14.777V15.1746H15.7021V18.1201H15.2277V15.1746H14.6766V14.777H15.2413C15.0967 14.5512 14.9778 14.3885 14.8844 14.2891C14.794 14.1898 14.7052 14.125 14.6179 14.0949C14.5275 14.0648 14.4055 14.0497 14.2519 14.0497H14.0486V13.6612H14.2429C14.4718 13.6642 14.6525 13.6883 14.785 13.7335C14.9205 13.7786 15.0561 13.8795 15.1916 14.0362C15.3301 14.1898 15.4973 14.4367 15.6931 14.777H16.2533ZM18.633 15.1746V16.0555C18.6992 15.926 18.7941 15.8236 18.9176 15.7483C19.0441 15.67 19.1962 15.6309 19.3739 15.6309C19.5576 15.6309 19.7202 15.6761 19.8618 15.7664C20.0033 15.8538 20.1133 15.9757 20.1916 16.1323C20.2699 16.2859 20.309 16.4621 20.309 16.6609C20.309 16.8747 20.2684 17.06 20.187 17.2166C20.1057 17.3702 19.9943 17.4892 19.8527 17.5735C19.7112 17.6548 19.55 17.6955 19.3693 17.6955C19.2609 17.6955 19.1645 17.6849 19.0802 17.6638V17.2889C19.1254 17.3009 19.1811 17.3069 19.2474 17.3069C19.416 17.3069 19.5546 17.2512 19.663 17.1398C19.7744 17.0253 19.8301 16.8687 19.8301 16.6699C19.8301 16.4832 19.7729 16.3311 19.6585 16.2137C19.547 16.0962 19.4055 16.0375 19.2338 16.0375C19.035 16.0375 18.8844 16.1037 18.782 16.2363C18.6827 16.3688 18.633 16.5269 18.633 16.7106V18.1201H18.1767V17.2934C18.1074 17.4229 18.0065 17.5268 17.874 17.6051C17.7415 17.6834 17.5819 17.7226 17.3951 17.7226C17.2084 17.7226 17.0427 17.6789 16.8982 17.5916C16.7536 17.5042 16.6407 17.3822 16.5594 17.2256C16.4811 17.066 16.4419 16.8808 16.4419 16.6699C16.4419 16.4621 16.4826 16.2799 16.5639 16.1233C16.6452 15.9667 16.7596 15.8462 16.9072 15.7619C17.0548 15.6746 17.2235 15.6309 17.4132 15.6309C17.5939 15.6309 17.749 15.6685 17.8785 15.7438C18.008 15.8191 18.1074 15.92 18.1767 16.0465V15.1746H16.0398V14.777H20.7066V15.1746H18.633ZM17.5487 17.325C17.6843 17.325 17.7987 17.2934 17.8921 17.2301C17.9884 17.1669 18.0592 17.0856 18.1044 16.9862C18.1526 16.8868 18.1767 16.7844 18.1767 16.679C18.1767 16.5073 18.1225 16.3582 18.014 16.2317C17.9056 16.1022 17.7505 16.0375 17.5487 16.0375C17.371 16.0375 17.2219 16.0962 17.1015 16.2137C16.981 16.3281 16.9208 16.4817 16.9208 16.6745C16.9208 16.8732 16.9795 17.0314 17.097 17.1488C17.2144 17.2663 17.365 17.325 17.5487 17.325Z" fill="url(#paint0_linear)"/>
<path d="M9.88168 11.2039C11.119 10.6151 12.1761 12.2803 11.1168 13.1495L8.69078 15.1398C8.163 15.5728 8.12103 16.3656 8.60012 16.8519L17.0083 25.3866L12.9311 22.2584L8.59115 19.1369L3.72496 16.114C2.94512 15.6295 3.0097 14.4743 3.83868 14.0798L9.88168 11.2039Z" fill="url(#paint1_linear)"/>
<path d="M21.3962 21.4615C20.1309 21.9877 19.1585 20.2716 20.26 19.4566L22.7826 17.5902C23.3314 17.1841 23.413 16.3945 22.9588 15.8848L14.9885 6.93987L18.9039 10.2683L23.0822 13.6031L27.791 16.8658C28.5456 17.3887 28.4233 18.5392 27.5756 18.8918L21.3962 21.4615Z" fill="url(#paint2_linear)"/>
<defs>
<linearGradient id="paint0_linear" x1="8.72972" y1="16.4308" x2="23.7316" y2="13.6929" gradientUnits="userSpaceOnUse">
<stop offset="0.0597401" stop-color="#090B35"/>
<stop offset="0.508333" stop-color="#EB5757"/>
<stop offset="0.785867" stop-color="#090B35" stop-opacity="0.99"/>
</linearGradient>
<linearGradient id="paint1_linear" x1="7.91235" y1="7.42582" x2="6.02999" y2="21.7161" gradientUnits="userSpaceOnUse">
<stop stop-color="#EB5757"/>
<stop offset="1" stop-color="#090B35" stop-opacity="0.99"/>
</linearGradient>
<linearGradient id="paint2_linear" x1="16.7437" y1="22.0615" x2="22.6418" y2="1.99868" gradientUnits="userSpaceOnUse">
<stop stop-color="#090B35" stop-opacity="0.9"/>
<stop offset="1" stop-color="#EB5757"/>
</linearGradient>
</defs>
</svg>
