<svg width="1440" height="473" viewBox="0 0 1440 473" fill="none" xmlns="http://www.w3.org/2000/svg">
<rect width="1440" height="473" fill="url(#paint0_linear)"/>
<g clip-path="url(#clip0)">
<path d="M0 149.6L18.5 203.452C36.9 257.882 74 364.719 111 349.849C147.7 334.4 185 195.8 222 188.149C258.5 179.919 295 304.082 332 372.949C369.2 442.682 406 457.119 443 457.552C480 457.119 517 442.682 554 442.249C590.8 442.682 628 457.119 665 419.149C701.5 380.6 738 288.2 775 288.2C812.3 288.2 849 380.6 886 349.849C923.1 318.519 960 165.482 997 134.152C1033.8 103.4 1071 195.8 1108 211.249C1144.6 226.119 1182 165.482 1218 180.352C1255.4 195.8 1292 288.2 1329 288.2C1366.2 288.2 1403 195.8 1422 149.6L1440 103.4V473H1421.5C1403.1 473 1366 473 1329 473C1292.3 473 1255 473 1218 473C1181.5 473 1145 473 1108 473C1070.8 473 1034 473 997 473C960 473 923 473 886 473C849.2 473 812 473 775 473C738.5 473 702 473 665 473C627.7 473 591 473 554 473C516.9 473 480 473 443 473C406.2 473 369 473 332 473C295.4 473 258 473 222 473C184.6 473 148 473 111 473C73.8 473 37 473 18 473H0V149.6Z" fill="#090B35" fill-opacity="0.99"/>
</g>
<defs>
<linearGradient id="paint0_linear" x1="-92.5" y1="63.5" x2="824.5" y2="672.5" gradientUnits="userSpaceOnUse">
<stop stop-color="#350931"/>
<stop offset="0.925743" stop-color="#DC0909" stop-opacity="0.69"/>
<stop offset="0.948206" stop-color="#C00508" stop-opacity="0.716258"/>
<stop offset="0.970498" stop-color="#B10A16" stop-opacity="0.780531"/>
<stop offset="1" stop-color="#090B35" stop-opacity="0.99"/>
</linearGradient>
<clipPath id="clip0">
<rect width="1440" height="462" fill="white" transform="translate(0 11)"/>
</clipPath>
</defs>
</svg>
